<?xml version="1.0" encoding="utf-8"?>
<!-- Generator: Adobe Illustrator 26.0.0, SVG Export Plug-In . SVG Version: 6.00 Build 0)  -->
<svg version="1.1" id="图层_1" xmlns="http://www.w3.org/2000/svg" xmlns:xlink="http://www.w3.org/1999/xlink" x="0px" y="0px"
	 viewBox="0 0 2000 2000" style="enable-background:new 0 0 2000 2000;" xml:space="preserve">
<style type="text/css">
	.st0{fill:#D4A0DE;}
</style>
<g>
	<rect x="227.5" y="993.2" class="st0" width="70.4" height="853.9"/>
	
		<rect x="432.2" y="823.7" transform="matrix(6.123234e-17 -1 1 6.123234e-17 -561.0245 1495.7473)" class="st0" width="70.4" height="409.4"/>
	<rect x="601.7" y="244.7" class="st0" width="70.4" height="818.8"/>
	<rect x="227.5" y="244.7" class="st0" width="70.4" height="444.4"/>
	<rect x="975.4" y="244.7" class="st0" width="70.4" height="444.4"/>
	
		<rect x="414.5" y="57.7" transform="matrix(-1.836970e-16 1 -1 -1.836970e-16 729.6196 -169.8261)" class="st0" width="70.4" height="444.4"/>
	
		<rect x="1367.5" y="-147.4" transform="matrix(-1.836970e-16 1 -1 -1.836970e-16 1682.5435 -1122.75)" class="st0" width="70.4" height="854.5"/>
	
		<rect x="601.4" y="244.9" transform="matrix(-1.836970e-16 1 -1 -1.836970e-16 1290.6033 17.3641)" class="st0" width="70.4" height="818.2"/>
	<rect x="227.5" y="993.2" class="st0" width="82" height="82"/>
	<rect x="227.5" y="607.1" class="st0" width="82" height="82"/>
	<rect x="227.5" y="244.7" class="st0" width="82" height="82"/>
	<rect x="589.9" y="244.7" class="st0" width="82" height="82"/>
	<rect x="975.4" y="244.7" class="st0" width="82" height="82"/>
	<rect x="963.7" y="607.1" class="st0" width="82" height="82"/>
	<rect x="590" y="981.5" class="st0" width="82" height="82"/>
	<rect x="590" y="607.1" class="st0" width="93.7" height="93.7"/>
</g>
</svg>
