<?xml version="1.0" standalone="no"?><!DOCTYPE svg PUBLIC "-//W3C//DTD SVG 1.1//EN" "http://www.w3.org/Graphics/SVG/1.1/DTD/svg11.dtd"><svg t="1698294230139" class="icon" viewBox="0 0 1024 1024" version="1.1" xmlns="http://www.w3.org/2000/svg" p-id="3978" width="36" height="36" fill="#ffffff" xmlns:xlink="http://www.w3.org/1999/xlink"><path d="M909.491951 146.84588c0-9.188507-4.228357-17.384984-10.839934-22.765817a29.214991 29.214991 0 0 0-18.750737-6.775937H656.559515c-16.209027 0-29.350001 13.140974-29.350001 29.350001s13.140974 29.350001 29.350001 29.35h152.919373l-190.082344 190.082345c-52.990448-43.574968-120.837866-69.743428-194.801824-69.743429-169.500167 0-306.907087 137.40692-306.907087 306.905131 0 169.500167 137.40692 306.907087 306.907087 306.907087 169.502124 0 306.909044-137.40692 306.909043-306.907087 0-74.398338-26.479571-142.611653-70.520225-195.739068l189.567741-189.567741v152.054527c0 16.209027 13.140974 29.350001 29.350001 29.35s29.350001-13.140974 29.350001-29.35V150.430493c0.144793-1.177913 0.24067-2.369523 0.24067-3.584613zM424.684726 851.627446c-137.129073 0-248.293179-111.164106-248.293179-248.293179s111.164106-248.293179 248.293179-248.293179c137.12516 0 248.293179 111.164106 248.293179 248.293179-0.001957 137.129073-111.168019 248.293179-248.293179 248.293179z"  p-id="3979"></path></svg>