<?xml version="1.0" encoding="utf-8"?>
<!-- Generator: Adobe Illustrator 26.0.0, SVG Export Plug-In . SVG Version: 6.00 Build 0)  -->
<svg version="1.1" id="图层_1" xmlns="http://www.w3.org/2000/svg" xmlns:xlink="http://www.w3.org/1999/xlink" x="0px" y="0px"
	 viewBox="0 0 2000 2000" style="enable-background:new 0 0 2000 2000;" xml:space="preserve">
<style type="text/css">
	.st0{fill:#D4A0DD;}
</style>
<path class="st0" d="M1399.4,1923.9c-41.5-283.5-186-401.8-482.1-418c-177.9-9.7-342-59.6-460.6-207c-22.5-28-46.8-53.7-46.2-100.3
	c76.8,54.9,137.8,124.8,234.7,122.6c35-0.8,79.6,9.6,89.1-40c8.6-45-27.9-68-62.7-77.1c-259.4-67.9-369-342.5-335.6-595.2
	c27.9,87.8,25.8,176.1,79.2,246.9c21.4,28.3,43.3,51.9,78.8,57.8c58.4,9.8,98.2-34.1,77.7-89.1c-12.5-33.6-34.5-63.6-52.5-95.2
	C338.9,411.9,546.7,135.3,816.6,76.1C750.9,121,703,167.1,669,226.1c-27.7,48.1-46,98.3-43.3,155c2.7,57.3,23.5,101.4,83.9,115.5
	c59.7,13.9,100.6-15.3,127-64.8c32.7-61.3,49.5-129.7,101.1-182.3c148.3-151.3,374-138.8,518,47.2c-75.5-47.3-142.2-59.7-212.5-52.7
	c-86.1,8.7-148.8,72.4-148.3,150.9c0.5,78,35.1,113.8,113.8,114.5c36.2,0.3,73.9,2.3,108.5-6.3c178.7-44.8,286.7,57.3,286.5,237.8
	c-0.3,207.7-111.2,382-327.1,428.5c-176.3,38-275.5,21.4-368.1-122.4c-9.7-15-15.9-32.4-22.2-49.3c-23.5-63.7-9.2-118.5,44.4-159.5
	c43.5-33.3,91.1-23.5,129.5,7.5c49.7,40.1,59.4,94.7,34.9,154.2c-6.6,16.1-13.9,32-21.2,48.7c122.5,13.2,199.4-109.2,150.3-234.7
	c-45.2-115.6-173.1-184.1-304.9-163.4c-115.5,18.2-224.7,137.5-230.7,252c-8.7,165.9,70,296.6,224.9,365.2
	c125.8,55.8,250.6,112.2,365.3,189.8C1374.2,1522.2,1468,1757.2,1399.4,1923.9z"/>
</svg>
