<?xml version="1.0" encoding="utf-8"?>
<!-- Generator: Adobe Illustrator 26.0.0, SVG Export Plug-In . SVG Version: 6.00 Build 0)  -->
<svg version="1.1" id="图层_1" xmlns="http://www.w3.org/2000/svg" xmlns:xlink="http://www.w3.org/1999/xlink" x="0px" y="0px"
	 viewBox="0 0 2000 2000" style="enable-background:new 0 0 2000 2000;" xml:space="preserve">
<style type="text/css">
	.st0{fill:#D4A0DD;}
</style>
<path class="st0" d="M534.4,1923.9c41.5-283.5,186-401.8,482.1-418c177.9-9.7,342-59.6,460.6-207c22.5-28,46.8-53.7,46.2-100.3
	c-76.8,54.9-137.8,124.8-234.7,122.6c-35-0.8-79.6,9.6-89.1-40c-8.6-45,27.9-68,62.7-77.1c259.4-67.9,369-342.5,335.6-595.2
	c-27.9,87.8-25.8,176.1-79.2,246.9c-21.4,28.3-43.3,51.9-78.8,57.8c-58.4,9.8-98.2-34.1-77.7-89.1c12.5-33.6,34.5-63.6,52.5-95.2
	c180.3-317.4-27.4-593.9-297.3-653.1c65.7,44.9,113.6,90.9,147.6,150c27.7,48.1,46,98.3,43.3,155c-2.7,57.3-23.5,101.4-83.9,115.5
	c-59.7,13.9-100.6-15.3-127-64.8c-32.7-61.3-49.5-129.7-101.1-182.3c-148.3-151.3-374-138.8-518,47.2
	c75.5-47.3,142.2-59.7,212.5-52.7c86.1,8.7,148.8,72.4,148.3,150.9c-0.5,78-35.1,113.8-113.8,114.5c-36.2,0.3-73.9,2.3-108.5-6.3
	C437.9,458.3,329.9,560.5,330.1,741c0.3,207.7,111.2,382,327.1,428.5c176.3,38,275.5,21.4,368.1-122.4c9.7-15,15.9-32.4,22.2-49.3
	c23.5-63.7,9.2-118.5-44.4-159.5c-43.5-33.3-91.1-23.5-129.5,7.5c-49.7,40.1-59.4,94.7-34.9,154.2c6.6,16.1,13.9,32,21.2,48.7
	C737.3,1062,660.4,939.6,709.5,814.1c45.2-115.6,173.1-184.1,304.9-163.4c115.5,18.2,224.7,137.5,230.7,252
	c8.7,165.9-70,296.6-224.9,365.2c-125.8,55.8-250.6,112.2-365.3,189.8C559.6,1522.2,465.8,1757.2,534.4,1923.9z"/>
</svg>
