<svg id="图层_1" data-name="图层 1" xmlns="http://www.w3.org/2000/svg" viewBox="0 0 1529.22 898.43"><defs><style>.cls-1,.cls-3,.cls-4,.cls-5,.cls-6,.cls-7{fill:none;stroke-miterlimit:10;}.cls-1{stroke:#666fb8;stroke-width:2px;}.cls-2{font-size:36.98px;fill:#9885ae;font-family:AdobeSongStd-Light-GBpc-EUC-H, Adobe Song Std;}.cls-3{stroke:#ac8051;}.cls-3,.cls-4,.cls-5,.cls-6,.cls-7{stroke-width:3px;}.cls-4,.cls-5,.cls-6,.cls-7{stroke:#598be6;}.cls-5{stroke-dasharray:12.04 12.04;}.cls-6{stroke-dasharray:12.4 12.4;}.cls-7{stroke-dasharray:11.98 11.98;}</style></defs><line class="cls-1" x1="134.55" y1="55.11" x2="134.55" y2="782.61"/><line class="cls-1" x1="1458.33" y1="763.37" x2="111.48" y2="763.37"/><text class="cls-2" transform="translate(77.94 770.67)">41</text><text class="cls-2" transform="translate(117.85 807.84)">15</text><line class="cls-1" x1="339.07" y1="55.11" x2="339.07" y2="782.61"/><text class="cls-2" transform="translate(322.37 807.84)">25</text><text class="cls-2" transform="translate(715.89 858.87)">年龄</text><line class="cls-1" x1="543.59" y1="55.11" x2="543.59" y2="782.61"/><text class="cls-2" transform="translate(526.9 807.84)">35</text><line class="cls-1" x1="748.11" y1="55.11" x2="748.11" y2="782.61"/><text class="cls-2" transform="translate(731.42 807.84)">45</text><line class="cls-1" x1="952.63" y1="55.11" x2="952.63" y2="782.61"/><text class="cls-2" transform="translate(935.94 807.84)">55</text><line class="cls-1" x1="1157.16" y1="55.11" x2="1157.16" y2="782.61"/><text class="cls-2" transform="translate(1140.46 807.84)">65</text><line class="cls-1" x1="1361.68" y1="55.11" x2="1361.68" y2="782.61"/><text class="cls-2" transform="translate(1344.98 807.84)">75</text><line class="cls-1" x1="1458.33" y1="677.28" x2="111.48" y2="677.28"/><text class="cls-2" transform="translate(77.94 684.58)">46</text><line class="cls-1" x1="1458.33" y1="591.2" x2="111.48" y2="591.2"/><text class="cls-2" transform="translate(77.94 598.5)">51</text><line class="cls-1" x1="1458.33" y1="505.11" x2="111.48" y2="505.11"/><text class="cls-2" transform="translate(77.94 512.41)">56</text><line class="cls-1" x1="1458.33" y1="419.02" x2="111.48" y2="419.02"/><text class="cls-2" transform="translate(77.94 426.32)">61</text><line class="cls-1" x1="1458.33" y1="332.93" x2="111.48" y2="332.93"/><text class="cls-2" transform="translate(77.94 340.23)">65</text><line class="cls-1" x1="1458.33" y1="246.85" x2="111.48" y2="246.85"/><text class="cls-2" transform="translate(77.94 254.15)">71</text><line class="cls-1" x1="1458.33" y1="160.76" x2="111.48" y2="160.76"/><text class="cls-2" transform="translate(77.94 168.06)">76</text><line class="cls-1" x1="1458.33" y1="74.67" x2="111.48" y2="74.67"/><text class="cls-2" transform="translate(77.94 81.97)">81</text><path class="cls-3" d="M134.54,522.07S156.72,463.89,164,398.41c0,0,16.7-55.59,51.13-10.05,0,0,22.44,77.07,24,86.09s9.92,47.62,9.92,47.62S260,540.85,268.89,508.5s20.35-81.77,20.35-81.77,12-13.19,21.91,4.55,20.35,35,20.35,35,13.57,20.87,22.44-5.74,16.17-57,16.17-57,8.87-19.73,24-7.73,18.78,50.6,18.78,50.6,4.18,19.31,17.22,7.31,17.74-11,17.74-11,7.82-6.78,9.39,33.92,27.65,177.73,37,185.12,18.79,0,18.79,0,2-66.42,5.21-126.55c0,0,15.4-29.65,29.09,25.28s14.48,114.8,23.48,98,16.44-34.83,23.87-27,14.48,17.22,19.57,3.91,6.65-94.3,15.65-92.35,10.56,80.61,10.56,80.61,5.09,35.61,15.26,10.18,14.48-62.22,22.31-51.65,27.78,88,42.26,51.26,17.22-105.26,39.13-86.09,16.44,126.39,41.48,112.69,34-82.56,34-82.56,2.74-20,14.09-7,18.39-14.48,17.61-26.22,5.87-111.91,12.91-102.52S890.94,509,890.94,509s5.09,26.73,12.52,3.39S907.37,368.93,922.24,376s9.52,147.52,20,147.13,29.74-122.48,29.74-122.48,4.3-11,12.13-3.13,9.39,56.74,25,34.43c0,0,15.26-30.91,18-16.82s4.31,123.65,21.52,106.82,23.48-80.48,23.48-95.61,7.05-19.43,20-19.43S1113.2,403,1116.72,457s5.09,71.22,11.74,63,7.83-122.87,28.7-125.74,38.6-1.31,40.95,10.43,8.87,24.83,17.74,6.29,32.87-51.68,41.74-26.37,4.44,54.61,21.13,33.69,18.26-15.39,19.57-7.32,7.56,117.1,14.61,113.71,5.21-27.13,5.21-27.13,2.09-68.61,17.48-74.87,37,7.05,37.57,66.79"/><path class="cls-4" d="M134.55,522.06s.75-2,2-5.63"/><path class="cls-5" d="M140.42,505c7.1-22,18.7-62.65,23.61-106.61,0,0,16.69-55.59,51.13-10.05,0,0,22.43,77.07,24,86.08s9.91,47.62,9.91,47.62,11,18.79,19.83-13.56,20.34-81.77,20.34-81.77,12-13.19,21.92,4.55,20.34,35,20.34,35,13.57,20.87,22.44-5.74,16.17-57,16.17-57,8.87-19.74,24-7.74,18.79,50.61,18.79,50.61,4.17,19.31,17.21,7.31a86.25,86.25,0,0,1,7-5.89"/><path class="cls-4" d="M442.2,444.56c4-2.16,5.65-1.8,5.65-1.8s2.25-1.95,4.58,2.52"/><path class="cls-6" d="M455.62,457.22a181.14,181.14,0,0,1,1.62,19.45c1.57,40.7,27.66,177.74,37.05,185.13a14.55,14.55,0,0,0,7.28,3.17"/><path class="cls-4" d="M507.71,664.43a17.49,17.49,0,0,0,5.36-2.63s.06-2.14.18-6"/><path class="cls-7" d="M513.65,643.84c1.78-52.78,7.53-203.69,15-203.69,9,0,21.51,8.61,23.86,42.26s5.48,70.44,21.13,50.09,11.74-23.22,25.83-14.74,23.48,4.57,20.34-24.39,1.57-69.14,11-67.05,14.09,72.53,21.13,72.53,9.39-36,9.39-43.05,7.83-15.65,13.31-11.74,27.39,67.31,36,61.05,30.52-92.35,30.52-92.35,10.17-36.78,18.78-17.22,25.83,148.7,38.35,129.13,27-93.91,27-93.91.35-2.62,18.09-4.44S871,407.8,869.42,383.8s3.65-124.69,13-105.91,14.09,74.61,19.3,74.09,14.61-125.22,14.61-125.22,5.22-23,8.35,0,6.26,133,24,123.65,24-136.17,24-136.17,5.22-17.74,12.52-7.83,14.61,45.92,18.26,44.35,15.66-31.83,20.35-29.74,5.74,4.7,12,104.87c0,0,9.91,23,15.13-2.61s26.09-113.22,26.09-113.22,14.09-16.17,28.17-2.08,14.61,108.52,14.61,108.52,7.83,28.17,16.18-30.78,11-114.79,42.78-113.22c0,0,13-3.13,21.39,19.3s18.26-2.08,18.26-2.08,23.48-46.44,38.09-29c0,0,10.43,32.09,15.13,26.35s20.35-33.39,24-26.35,8.87,128.09,16.69,122.87-3.65-111.65,32.61-97c24.4,9.83,30,33.71,31.09,48.28"/><path class="cls-4" d="M1376.29,240.86a58.52,58.52,0,0,1-.26,6"/></svg>